<mxfile host="app.diagrams.net" modified="2023-06-03T15:29:51.098Z" agent="Mozilla/5.0 (Windows NT 10.0; Win64; x64; rv:109.0) Gecko/20100101 Firefox/113.0" etag="xDUp86ZIOJq6yUOo3JQz" version="21.3.6">
  <diagram name="Página-1" id="zrf6kxMtCU2GZZKfEgIj">
    <mxGraphModel dx="2497" dy="1240" grid="0" gridSize="10" guides="1" tooltips="1" connect="1" arrows="1" fold="1" page="0" pageScale="1" pageWidth="827" pageHeight="1169" math="0" shadow="0">
      <root>
        <mxCell id="0" />
        <mxCell id="1" parent="0" />
        <mxCell id="dMZY4mZLo9hEpO47Zzg4-44" value="USUARIO" style="swimlane;fontStyle=0;childLayout=stackLayout;horizontal=1;startSize=30;horizontalStack=0;resizeParent=1;resizeParentMax=0;resizeLast=0;collapsible=1;marginBottom=0;whiteSpace=wrap;html=1;strokeWidth=3;" vertex="1" parent="1">
          <mxGeometry x="470" y="358" width="94" height="240" as="geometry" />
        </mxCell>
        <mxCell id="dMZY4mZLo9hEpO47Zzg4-45" value="&lt;u&gt;ci&lt;/u&gt;" style="text;strokeColor=default;fillColor=none;align=left;verticalAlign=middle;spacingLeft=4;spacingRight=4;overflow=hidden;points=[[0,0.5],[1,0.5]];portConstraint=eastwest;rotatable=0;whiteSpace=wrap;html=1;strokeWidth=0;" vertex="1" parent="dMZY4mZLo9hEpO47Zzg4-44">
          <mxGeometry y="30" width="94" height="30" as="geometry" />
        </mxCell>
        <mxCell id="dMZY4mZLo9hEpO47Zzg4-46" value="nombre" style="text;strokeColor=default;fillColor=none;align=left;verticalAlign=middle;spacingLeft=4;spacingRight=4;overflow=hidden;points=[[0,0.5],[1,0.5]];portConstraint=eastwest;rotatable=0;whiteSpace=wrap;html=1;strokeWidth=0;" vertex="1" parent="dMZY4mZLo9hEpO47Zzg4-44">
          <mxGeometry y="60" width="94" height="30" as="geometry" />
        </mxCell>
        <mxCell id="dMZY4mZLo9hEpO47Zzg4-47" value="apellido" style="text;strokeColor=default;fillColor=none;align=left;verticalAlign=middle;spacingLeft=4;spacingRight=4;overflow=hidden;points=[[0,0.5],[1,0.5]];portConstraint=eastwest;rotatable=0;whiteSpace=wrap;html=1;strokeWidth=0;" vertex="1" parent="dMZY4mZLo9hEpO47Zzg4-44">
          <mxGeometry y="90" width="94" height="30" as="geometry" />
        </mxCell>
        <mxCell id="dMZY4mZLo9hEpO47Zzg4-48" value="foto_ci" style="text;strokeColor=default;fillColor=none;align=left;verticalAlign=middle;spacingLeft=4;spacingRight=4;overflow=hidden;points=[[0,0.5],[1,0.5]];portConstraint=eastwest;rotatable=0;whiteSpace=wrap;html=1;strokeWidth=0;" vertex="1" parent="dMZY4mZLo9hEpO47Zzg4-44">
          <mxGeometry y="120" width="94" height="30" as="geometry" />
        </mxCell>
        <mxCell id="dMZY4mZLo9hEpO47Zzg4-49" value="contraseña" style="text;strokeColor=default;fillColor=none;align=left;verticalAlign=middle;spacingLeft=4;spacingRight=4;overflow=hidden;points=[[0,0.5],[1,0.5]];portConstraint=eastwest;rotatable=0;whiteSpace=wrap;html=1;strokeWidth=0;" vertex="1" parent="dMZY4mZLo9hEpO47Zzg4-44">
          <mxGeometry y="150" width="94" height="30" as="geometry" />
        </mxCell>
        <mxCell id="dMZY4mZLo9hEpO47Zzg4-53" value="geo_distancia" style="text;strokeColor=default;fillColor=none;align=left;verticalAlign=middle;spacingLeft=4;spacingRight=4;overflow=hidden;points=[[0,0.5],[1,0.5]];portConstraint=eastwest;rotatable=0;whiteSpace=wrap;html=1;strokeWidth=0;" vertex="1" parent="dMZY4mZLo9hEpO47Zzg4-44">
          <mxGeometry y="180" width="94" height="30" as="geometry" />
        </mxCell>
        <mxCell id="dMZY4mZLo9hEpO47Zzg4-52" value="geo_estado" style="text;strokeColor=default;fillColor=none;align=left;verticalAlign=middle;spacingLeft=4;spacingRight=4;overflow=hidden;points=[[0,0.5],[1,0.5]];portConstraint=eastwest;rotatable=0;whiteSpace=wrap;html=1;strokeWidth=0;" vertex="1" parent="dMZY4mZLo9hEpO47Zzg4-44">
          <mxGeometry y="210" width="94" height="30" as="geometry" />
        </mxCell>
        <mxCell id="dMZY4mZLo9hEpO47Zzg4-54" value="USUARIO_EMAIL" style="swimlane;fontStyle=0;childLayout=stackLayout;horizontal=1;startSize=30;horizontalStack=0;resizeParent=1;resizeParentMax=0;resizeLast=0;collapsible=1;marginBottom=0;whiteSpace=wrap;html=1;strokeWidth=3;" vertex="1" parent="1">
          <mxGeometry x="662" y="199" width="168" height="120" as="geometry" />
        </mxCell>
        <mxCell id="dMZY4mZLo9hEpO47Zzg4-55" value="&lt;span&gt;&lt;u&gt;usuario_ci&lt;/u&gt; → USUARIO(ci)&lt;br&gt;&lt;/span&gt;" style="text;strokeColor=default;fillColor=none;align=left;verticalAlign=middle;spacingLeft=4;spacingRight=4;overflow=hidden;points=[[0,0.5],[1,0.5]];portConstraint=eastwest;rotatable=0;whiteSpace=wrap;html=1;fontStyle=0;strokeWidth=0;" vertex="1" parent="dMZY4mZLo9hEpO47Zzg4-54">
          <mxGeometry y="30" width="168" height="30" as="geometry" />
        </mxCell>
        <mxCell id="dMZY4mZLo9hEpO47Zzg4-56" value="id" style="text;strokeColor=default;fillColor=none;align=left;verticalAlign=middle;spacingLeft=4;spacingRight=4;overflow=hidden;points=[[0,0.5],[1,0.5]];portConstraint=eastwest;rotatable=0;whiteSpace=wrap;html=1;fontStyle=4;strokeWidth=0;" vertex="1" parent="dMZY4mZLo9hEpO47Zzg4-54">
          <mxGeometry y="60" width="168" height="30" as="geometry" />
        </mxCell>
        <mxCell id="dMZY4mZLo9hEpO47Zzg4-57" value="email" style="text;strokeColor=default;fillColor=none;align=left;verticalAlign=middle;spacingLeft=4;spacingRight=4;overflow=hidden;points=[[0,0.5],[1,0.5]];portConstraint=eastwest;rotatable=0;whiteSpace=wrap;html=1;strokeWidth=0;" vertex="1" parent="dMZY4mZLo9hEpO47Zzg4-54">
          <mxGeometry y="90" width="168" height="30" as="geometry" />
        </mxCell>
        <mxCell id="dMZY4mZLo9hEpO47Zzg4-62" value="" style="endArrow=none;html=1;rounded=0;edgeStyle=elbowEdgeStyle;strokeWidth=1;elbow=vertical;" edge="1" parent="1" source="dMZY4mZLo9hEpO47Zzg4-44" target="dMZY4mZLo9hEpO47Zzg4-54">
          <mxGeometry width="50" height="50" relative="1" as="geometry">
            <mxPoint x="417" y="271" as="sourcePoint" />
            <mxPoint x="467" y="221" as="targetPoint" />
          </mxGeometry>
        </mxCell>
        <mxCell id="dMZY4mZLo9hEpO47Zzg4-63" value="NOTIFICACIÓN" style="swimlane;fontStyle=0;childLayout=stackLayout;horizontal=1;startSize=30;horizontalStack=0;resizeParent=1;resizeParentMax=0;resizeLast=0;collapsible=1;marginBottom=0;whiteSpace=wrap;html=1;strokeWidth=3;" vertex="1" parent="1">
          <mxGeometry x="754" y="399" width="164" height="150" as="geometry" />
        </mxCell>
        <mxCell id="dMZY4mZLo9hEpO47Zzg4-64" value="&lt;u&gt;usuario_ci&lt;/u&gt; → USUARIO(ci)" style="text;strokeColor=default;fillColor=none;align=left;verticalAlign=middle;spacingLeft=4;spacingRight=4;overflow=hidden;points=[[0,0.5],[1,0.5]];portConstraint=eastwest;rotatable=0;whiteSpace=wrap;html=1;strokeWidth=0;" vertex="1" parent="dMZY4mZLo9hEpO47Zzg4-63">
          <mxGeometry y="30" width="164" height="30" as="geometry" />
        </mxCell>
        <mxCell id="dMZY4mZLo9hEpO47Zzg4-65" value="id_msg" style="text;strokeColor=default;fillColor=none;align=left;verticalAlign=middle;spacingLeft=4;spacingRight=4;overflow=hidden;points=[[0,0.5],[1,0.5]];portConstraint=eastwest;rotatable=0;whiteSpace=wrap;html=1;fontStyle=4;strokeWidth=0;" vertex="1" parent="dMZY4mZLo9hEpO47Zzg4-63">
          <mxGeometry y="60" width="164" height="30" as="geometry" />
        </mxCell>
        <mxCell id="dMZY4mZLo9hEpO47Zzg4-66" value="mensaje" style="text;strokeColor=default;fillColor=none;align=left;verticalAlign=middle;spacingLeft=4;spacingRight=4;overflow=hidden;points=[[0,0.5],[1,0.5]];portConstraint=eastwest;rotatable=0;whiteSpace=wrap;html=1;strokeWidth=0;" vertex="1" parent="dMZY4mZLo9hEpO47Zzg4-63">
          <mxGeometry y="90" width="164" height="30" as="geometry" />
        </mxCell>
        <mxCell id="dMZY4mZLo9hEpO47Zzg4-67" value="fecha" style="text;strokeColor=default;fillColor=none;align=left;verticalAlign=middle;spacingLeft=4;spacingRight=4;overflow=hidden;points=[[0,0.5],[1,0.5]];portConstraint=eastwest;rotatable=0;whiteSpace=wrap;html=1;strokeWidth=0;" vertex="1" parent="dMZY4mZLo9hEpO47Zzg4-63">
          <mxGeometry y="120" width="164" height="30" as="geometry" />
        </mxCell>
        <mxCell id="dMZY4mZLo9hEpO47Zzg4-71" value="" style="endArrow=none;html=1;rounded=0;edgeStyle=elbowEdgeStyle;strokeWidth=1;" edge="1" parent="1" source="dMZY4mZLo9hEpO47Zzg4-63" target="dMZY4mZLo9hEpO47Zzg4-44">
          <mxGeometry width="50" height="50" relative="1" as="geometry">
            <mxPoint x="480" y="488" as="sourcePoint" />
            <mxPoint x="383" y="308" as="targetPoint" />
          </mxGeometry>
        </mxCell>
        <mxCell id="dMZY4mZLo9hEpO47Zzg4-72" value="ADMIN" style="swimlane;fontStyle=0;childLayout=stackLayout;horizontal=1;startSize=30;horizontalStack=0;resizeParent=1;resizeParentMax=0;resizeLast=0;collapsible=1;marginBottom=0;whiteSpace=wrap;html=1;strokeWidth=3;" vertex="1" parent="1">
          <mxGeometry x="237" y="635" width="115" height="60" as="geometry">
            <mxRectangle x="470" y="633" width="72" height="30" as="alternateBounds" />
          </mxGeometry>
        </mxCell>
        <mxCell id="dMZY4mZLo9hEpO47Zzg4-73" value="&lt;u&gt;ci&lt;/u&gt; → USUARIO(ci)" style="text;strokeColor=default;fillColor=none;align=left;verticalAlign=middle;spacingLeft=4;spacingRight=4;overflow=hidden;points=[[0,0.5],[1,0.5]];portConstraint=eastwest;rotatable=0;whiteSpace=wrap;html=1;strokeWidth=0;" vertex="1" parent="dMZY4mZLo9hEpO47Zzg4-72">
          <mxGeometry y="30" width="115" height="30" as="geometry" />
        </mxCell>
        <mxCell id="dMZY4mZLo9hEpO47Zzg4-80" value="USUARIO_PERMISO" style="swimlane;fontStyle=0;childLayout=stackLayout;horizontal=1;startSize=30;horizontalStack=0;resizeParent=1;resizeParentMax=0;resizeLast=0;collapsible=1;marginBottom=0;whiteSpace=wrap;html=1;strokeWidth=3;" vertex="1" parent="1">
          <mxGeometry x="128" y="843" width="189" height="90" as="geometry" />
        </mxCell>
        <mxCell id="dMZY4mZLo9hEpO47Zzg4-81" value="&lt;u&gt;admin_ci&lt;/u&gt; → ADMIN(ci)" style="text;strokeColor=default;fillColor=none;align=left;verticalAlign=middle;spacingLeft=4;spacingRight=4;overflow=hidden;points=[[0,0.5],[1,0.5]];portConstraint=eastwest;rotatable=0;whiteSpace=wrap;html=1;strokeWidth=0;" vertex="1" parent="dMZY4mZLo9hEpO47Zzg4-80">
          <mxGeometry y="30" width="189" height="30" as="geometry" />
        </mxCell>
        <mxCell id="dMZY4mZLo9hEpO47Zzg4-100" value="&lt;u&gt;permiso_id&lt;/u&gt; → PERMISO(id)" style="text;strokeColor=default;fillColor=none;align=left;verticalAlign=middle;spacingLeft=4;spacingRight=4;overflow=hidden;points=[[0,0.5],[1,0.5]];portConstraint=eastwest;rotatable=0;whiteSpace=wrap;html=1;strokeWidth=0;" vertex="1" parent="dMZY4mZLo9hEpO47Zzg4-80">
          <mxGeometry y="60" width="189" height="30" as="geometry" />
        </mxCell>
        <mxCell id="dMZY4mZLo9hEpO47Zzg4-88" value="" style="endArrow=none;html=1;rounded=0;edgeStyle=elbowEdgeStyle;strokeWidth=1;elbow=vertical;" edge="1" parent="1" source="dMZY4mZLo9hEpO47Zzg4-72" target="dMZY4mZLo9hEpO47Zzg4-44">
          <mxGeometry width="50" height="50" relative="1" as="geometry">
            <mxPoint x="793" y="383" as="sourcePoint" />
            <mxPoint x="574" y="413" as="targetPoint" />
          </mxGeometry>
        </mxCell>
        <mxCell id="dMZY4mZLo9hEpO47Zzg4-89" value="" style="endArrow=none;html=1;rounded=0;edgeStyle=elbowEdgeStyle;strokeWidth=1;elbow=vertical;" edge="1" parent="1" source="dMZY4mZLo9hEpO47Zzg4-72" target="dMZY4mZLo9hEpO47Zzg4-80">
          <mxGeometry width="50" height="50" relative="1" as="geometry">
            <mxPoint x="574" y="688" as="sourcePoint" />
            <mxPoint x="574" y="413" as="targetPoint" />
          </mxGeometry>
        </mxCell>
        <mxCell id="dMZY4mZLo9hEpO47Zzg4-90" value="NECESITADO" style="swimlane;fontStyle=0;childLayout=stackLayout;horizontal=1;startSize=30;horizontalStack=0;resizeParent=1;resizeParentMax=0;resizeLast=0;collapsible=1;marginBottom=0;whiteSpace=wrap;html=1;strokeWidth=3;" vertex="1" parent="1">
          <mxGeometry x="449" y="631" width="136" height="60" as="geometry" />
        </mxCell>
        <mxCell id="dMZY4mZLo9hEpO47Zzg4-91" value="&lt;u&gt;ci&lt;/u&gt; → USUARIO(ci)" style="text;strokeColor=default;fillColor=none;align=left;verticalAlign=middle;spacingLeft=4;spacingRight=4;overflow=hidden;points=[[0,0.5],[1,0.5]];portConstraint=eastwest;rotatable=0;whiteSpace=wrap;html=1;strokeWidth=0;" vertex="1" parent="dMZY4mZLo9hEpO47Zzg4-90">
          <mxGeometry y="30" width="136" height="30" as="geometry" />
        </mxCell>
        <mxCell id="dMZY4mZLo9hEpO47Zzg4-93" value="" style="endArrow=none;html=1;rounded=0;edgeStyle=elbowEdgeStyle;strokeWidth=1;elbow=vertical;" edge="1" parent="1" source="dMZY4mZLo9hEpO47Zzg4-90" target="dMZY4mZLo9hEpO47Zzg4-44">
          <mxGeometry width="50" height="50" relative="1" as="geometry">
            <mxPoint x="527" y="643" as="sourcePoint" />
            <mxPoint x="527" y="608" as="targetPoint" />
          </mxGeometry>
        </mxCell>
        <mxCell id="dMZY4mZLo9hEpO47Zzg4-94" value="SOLIDARIO" style="swimlane;fontStyle=0;childLayout=stackLayout;horizontal=1;startSize=30;horizontalStack=0;resizeParent=1;resizeParentMax=0;resizeLast=0;collapsible=1;marginBottom=0;whiteSpace=wrap;html=1;strokeWidth=3;" vertex="1" parent="1">
          <mxGeometry x="662" y="635" width="136" height="60" as="geometry" />
        </mxCell>
        <mxCell id="dMZY4mZLo9hEpO47Zzg4-95" value="&lt;u&gt;ci&lt;/u&gt; → USUARIO(ci)" style="text;strokeColor=default;fillColor=none;align=left;verticalAlign=middle;spacingLeft=4;spacingRight=4;overflow=hidden;points=[[0,0.5],[1,0.5]];portConstraint=eastwest;rotatable=0;whiteSpace=wrap;html=1;strokeWidth=0;" vertex="1" parent="dMZY4mZLo9hEpO47Zzg4-94">
          <mxGeometry y="30" width="136" height="30" as="geometry" />
        </mxCell>
        <mxCell id="dMZY4mZLo9hEpO47Zzg4-96" value="" style="endArrow=none;html=1;rounded=0;edgeStyle=elbowEdgeStyle;strokeWidth=1;elbow=vertical;" edge="1" parent="1" source="dMZY4mZLo9hEpO47Zzg4-94" target="dMZY4mZLo9hEpO47Zzg4-44">
          <mxGeometry width="50" height="50" relative="1" as="geometry">
            <mxPoint x="326" y="643" as="sourcePoint" />
            <mxPoint x="527" y="608" as="targetPoint" />
          </mxGeometry>
        </mxCell>
        <mxCell id="dMZY4mZLo9hEpO47Zzg4-102" value="" style="endArrow=none;html=1;rounded=0;edgeStyle=elbowEdgeStyle;strokeWidth=1;elbow=vertical;" edge="1" parent="1" source="dMZY4mZLo9hEpO47Zzg4-103" target="dMZY4mZLo9hEpO47Zzg4-90">
          <mxGeometry width="50" height="50" relative="1" as="geometry">
            <mxPoint x="320.5" y="756" as="sourcePoint" />
            <mxPoint x="527" y="608" as="targetPoint" />
          </mxGeometry>
        </mxCell>
        <mxCell id="dMZY4mZLo9hEpO47Zzg4-103" value="NECESIDAD" style="swimlane;fontStyle=0;childLayout=stackLayout;horizontal=1;startSize=30;horizontalStack=0;resizeParent=1;resizeParentMax=0;resizeLast=0;collapsible=1;marginBottom=0;whiteSpace=wrap;html=1;strokeWidth=3;" vertex="1" parent="1">
          <mxGeometry x="349" y="771" width="171" height="300" as="geometry" />
        </mxCell>
        <mxCell id="dMZY4mZLo9hEpO47Zzg4-106" value="&lt;u&gt;nec_ci&lt;/u&gt; → NECESITADO(ci)" style="text;strokeColor=default;fillColor=none;align=left;verticalAlign=middle;spacingLeft=4;spacingRight=4;overflow=hidden;points=[[0,0.5],[1,0.5]];portConstraint=eastwest;rotatable=0;whiteSpace=wrap;html=1;strokeWidth=0;" vertex="1" parent="dMZY4mZLo9hEpO47Zzg4-103">
          <mxGeometry y="30" width="171" height="30" as="geometry" />
        </mxCell>
        <mxCell id="dMZY4mZLo9hEpO47Zzg4-107" value="&lt;u&gt;id&lt;/u&gt;" style="text;strokeColor=default;fillColor=none;align=left;verticalAlign=middle;spacingLeft=4;spacingRight=4;overflow=hidden;points=[[0,0.5],[1,0.5]];portConstraint=eastwest;rotatable=0;whiteSpace=wrap;html=1;strokeWidth=0;" vertex="1" parent="dMZY4mZLo9hEpO47Zzg4-103">
          <mxGeometry y="60" width="171" height="30" as="geometry" />
        </mxCell>
        <mxCell id="dMZY4mZLo9hEpO47Zzg4-110" value="fecha_creación" style="text;strokeColor=default;fillColor=none;align=left;verticalAlign=middle;spacingLeft=4;spacingRight=4;overflow=hidden;points=[[0,0.5],[1,0.5]];portConstraint=eastwest;rotatable=0;whiteSpace=wrap;html=1;strokeWidth=0;" vertex="1" parent="dMZY4mZLo9hEpO47Zzg4-103">
          <mxGeometry y="90" width="171" height="30" as="geometry" />
        </mxCell>
        <mxCell id="dMZY4mZLo9hEpO47Zzg4-108" value="descripción" style="text;strokeColor=default;fillColor=none;align=left;verticalAlign=middle;spacingLeft=4;spacingRight=4;overflow=hidden;points=[[0,0.5],[1,0.5]];portConstraint=eastwest;rotatable=0;whiteSpace=wrap;html=1;strokeWidth=0;" vertex="1" parent="dMZY4mZLo9hEpO47Zzg4-103">
          <mxGeometry y="120" width="171" height="30" as="geometry" />
        </mxCell>
        <mxCell id="dMZY4mZLo9hEpO47Zzg4-169" value="ubicación" style="text;strokeColor=default;fillColor=none;align=left;verticalAlign=middle;spacingLeft=4;spacingRight=4;overflow=hidden;points=[[0,0.5],[1,0.5]];portConstraint=eastwest;rotatable=0;whiteSpace=wrap;html=1;strokeWidth=0;" vertex="1" parent="dMZY4mZLo9hEpO47Zzg4-103">
          <mxGeometry y="150" width="171" height="30" as="geometry" />
        </mxCell>
        <mxCell id="dMZY4mZLo9hEpO47Zzg4-111" value="estado" style="text;strokeColor=default;fillColor=none;align=left;verticalAlign=middle;spacingLeft=4;spacingRight=4;overflow=hidden;points=[[0,0.5],[1,0.5]];portConstraint=eastwest;rotatable=0;whiteSpace=wrap;html=1;strokeWidth=0;" vertex="1" parent="dMZY4mZLo9hEpO47Zzg4-103">
          <mxGeometry y="180" width="171" height="30" as="geometry" />
        </mxCell>
        <mxCell id="dMZY4mZLo9hEpO47Zzg4-109" value="fecha_inicio" style="text;strokeColor=default;fillColor=none;align=left;verticalAlign=middle;spacingLeft=4;spacingRight=4;overflow=hidden;points=[[0,0.5],[1,0.5]];portConstraint=eastwest;rotatable=0;whiteSpace=wrap;html=1;strokeWidth=0;" vertex="1" parent="dMZY4mZLo9hEpO47Zzg4-103">
          <mxGeometry y="210" width="171" height="30" as="geometry" />
        </mxCell>
        <mxCell id="dMZY4mZLo9hEpO47Zzg4-113" value="fecha_fin" style="text;strokeColor=default;fillColor=none;align=left;verticalAlign=middle;spacingLeft=4;spacingRight=4;overflow=hidden;points=[[0,0.5],[1,0.5]];portConstraint=eastwest;rotatable=0;whiteSpace=wrap;html=1;strokeWidth=0;" vertex="1" parent="dMZY4mZLo9hEpO47Zzg4-103">
          <mxGeometry y="240" width="171" height="30" as="geometry" />
        </mxCell>
        <mxCell id="dMZY4mZLo9hEpO47Zzg4-112" value="vencimiento" style="text;strokeColor=default;fillColor=none;align=left;verticalAlign=middle;spacingLeft=4;spacingRight=4;overflow=hidden;points=[[0,0.5],[1,0.5]];portConstraint=eastwest;rotatable=0;whiteSpace=wrap;html=1;strokeWidth=0;" vertex="1" parent="dMZY4mZLo9hEpO47Zzg4-103">
          <mxGeometry y="270" width="171" height="30" as="geometry" />
        </mxCell>
        <mxCell id="dMZY4mZLo9hEpO47Zzg4-114" value="NECESIDAD_HABILIDAD" style="swimlane;fontStyle=0;childLayout=stackLayout;horizontal=1;startSize=30;horizontalStack=0;resizeParent=1;resizeParentMax=0;resizeLast=0;collapsible=1;marginBottom=0;whiteSpace=wrap;html=1;strokeWidth=3;" vertex="1" parent="1">
          <mxGeometry x="585" y="1129" width="265" height="180" as="geometry" />
        </mxCell>
        <mxCell id="dMZY4mZLo9hEpO47Zzg4-115" value="&lt;u&gt;nec_ci&lt;/u&gt;" style="text;strokeColor=default;fillColor=none;align=left;verticalAlign=middle;spacingLeft=4;spacingRight=4;overflow=hidden;points=[[0,0.5],[1,0.5]];portConstraint=eastwest;rotatable=0;whiteSpace=wrap;html=1;strokeWidth=0;" vertex="1" parent="dMZY4mZLo9hEpO47Zzg4-114">
          <mxGeometry y="30" width="265" height="30" as="geometry" />
        </mxCell>
        <mxCell id="dMZY4mZLo9hEpO47Zzg4-123" value="&lt;u&gt;nec_id&lt;/u&gt;" style="text;strokeColor=default;fillColor=none;align=left;verticalAlign=middle;spacingLeft=4;spacingRight=4;overflow=hidden;points=[[0,0.5],[1,0.5]];portConstraint=eastwest;rotatable=0;whiteSpace=wrap;html=1;strokeWidth=0;" vertex="1" parent="dMZY4mZLo9hEpO47Zzg4-114">
          <mxGeometry y="60" width="265" height="30" as="geometry" />
        </mxCell>
        <mxCell id="dMZY4mZLo9hEpO47Zzg4-125" value="&lt;u&gt;hab_id&lt;/u&gt;&lt;u&gt;&lt;/u&gt;&lt;u&gt;&lt;/u&gt; → HABILIDAD(id)" style="text;strokeColor=default;fillColor=none;align=left;verticalAlign=middle;spacingLeft=4;spacingRight=4;overflow=hidden;points=[[0,0.5],[1,0.5]];portConstraint=eastwest;rotatable=0;whiteSpace=wrap;html=1;strokeWidth=0;" vertex="1" parent="dMZY4mZLo9hEpO47Zzg4-114">
          <mxGeometry y="90" width="265" height="30" as="geometry" />
        </mxCell>
        <mxCell id="dMZY4mZLo9hEpO47Zzg4-117" value="fecha_resuelto" style="text;strokeColor=default;fillColor=none;align=left;verticalAlign=middle;spacingLeft=4;spacingRight=4;overflow=hidden;points=[[0,0.5],[1,0.5]];portConstraint=eastwest;rotatable=0;whiteSpace=wrap;html=1;strokeWidth=0;" vertex="1" parent="dMZY4mZLo9hEpO47Zzg4-114">
          <mxGeometry y="120" width="265" height="30" as="geometry" />
        </mxCell>
        <mxCell id="dMZY4mZLo9hEpO47Zzg4-138" value="FK (nec_ci, nec_id) → NECESIDAD(nec_ci, id)" style="text;strokeColor=default;fillColor=none;align=left;verticalAlign=middle;spacingLeft=4;spacingRight=4;overflow=hidden;points=[[0,0.5],[1,0.5]];portConstraint=eastwest;rotatable=0;whiteSpace=wrap;html=1;strokeWidth=0;" vertex="1" parent="dMZY4mZLo9hEpO47Zzg4-114">
          <mxGeometry y="150" width="265" height="30" as="geometry" />
        </mxCell>
        <mxCell id="dMZY4mZLo9hEpO47Zzg4-126" value="SOLIDARIO_HABILIDAD" style="swimlane;fontStyle=0;childLayout=stackLayout;horizontal=1;startSize=30;horizontalStack=0;resizeParent=1;resizeParentMax=0;resizeLast=0;collapsible=1;marginBottom=0;whiteSpace=wrap;html=1;strokeWidth=3;" vertex="1" parent="1">
          <mxGeometry x="1121" y="701" width="147" height="150" as="geometry" />
        </mxCell>
        <mxCell id="dMZY4mZLo9hEpO47Zzg4-127" value="&lt;u&gt;sol_ci&lt;/u&gt; → SOLIDARIO(ci)" style="text;strokeColor=default;fillColor=none;align=left;verticalAlign=middle;spacingLeft=4;spacingRight=4;overflow=hidden;points=[[0,0.5],[1,0.5]];portConstraint=eastwest;rotatable=0;whiteSpace=wrap;html=1;strokeWidth=0;" vertex="1" parent="dMZY4mZLo9hEpO47Zzg4-126">
          <mxGeometry y="30" width="147" height="30" as="geometry" />
        </mxCell>
        <mxCell id="dMZY4mZLo9hEpO47Zzg4-128" value="&lt;u&gt;hab_id&lt;/u&gt;&lt;u&gt;&lt;/u&gt; → HABILIDAD(id)" style="text;strokeColor=default;fillColor=none;align=left;verticalAlign=middle;spacingLeft=4;spacingRight=4;overflow=hidden;points=[[0,0.5],[1,0.5]];portConstraint=eastwest;rotatable=0;whiteSpace=wrap;html=1;strokeWidth=0;" vertex="1" parent="dMZY4mZLo9hEpO47Zzg4-126">
          <mxGeometry y="60" width="147" height="30" as="geometry" />
        </mxCell>
        <mxCell id="dMZY4mZLo9hEpO47Zzg4-129" value="&lt;div&gt;fecha_creación&lt;/div&gt;" style="text;strokeColor=default;fillColor=none;align=left;verticalAlign=middle;spacingLeft=4;spacingRight=4;overflow=hidden;points=[[0,0.5],[1,0.5]];portConstraint=eastwest;rotatable=0;whiteSpace=wrap;html=1;strokeWidth=0;" vertex="1" parent="dMZY4mZLo9hEpO47Zzg4-126">
          <mxGeometry y="90" width="147" height="30" as="geometry" />
        </mxCell>
        <mxCell id="dMZY4mZLo9hEpO47Zzg4-130" value="descripción" style="text;strokeColor=default;fillColor=none;align=left;verticalAlign=middle;spacingLeft=4;spacingRight=4;overflow=hidden;points=[[0,0.5],[1,0.5]];portConstraint=eastwest;rotatable=0;whiteSpace=wrap;html=1;strokeWidth=0;" vertex="1" parent="dMZY4mZLo9hEpO47Zzg4-126">
          <mxGeometry y="120" width="147" height="30" as="geometry" />
        </mxCell>
        <mxCell id="dMZY4mZLo9hEpO47Zzg4-131" value="" style="endArrow=none;html=1;rounded=0;edgeStyle=elbowEdgeStyle;strokeWidth=1;" edge="1" parent="1" source="dMZY4mZLo9hEpO47Zzg4-126" target="dMZY4mZLo9hEpO47Zzg4-94">
          <mxGeometry width="50" height="50" relative="1" as="geometry">
            <mxPoint x="740" y="645" as="sourcePoint" />
            <mxPoint x="776" y="652" as="targetPoint" />
          </mxGeometry>
        </mxCell>
        <mxCell id="dMZY4mZLo9hEpO47Zzg4-132" value="HABILIDAD" style="swimlane;fontStyle=0;childLayout=stackLayout;horizontal=1;startSize=30;horizontalStack=0;resizeParent=1;resizeParentMax=0;resizeLast=0;collapsible=1;marginBottom=0;whiteSpace=wrap;html=1;strokeWidth=3;" vertex="1" parent="1">
          <mxGeometry x="1134" y="966" width="147" height="90" as="geometry" />
        </mxCell>
        <mxCell id="dMZY4mZLo9hEpO47Zzg4-133" value="&lt;u&gt;id&lt;/u&gt;" style="text;strokeColor=default;fillColor=none;align=left;verticalAlign=middle;spacingLeft=4;spacingRight=4;overflow=hidden;points=[[0,0.5],[1,0.5]];portConstraint=eastwest;rotatable=0;whiteSpace=wrap;html=1;strokeWidth=0;" vertex="1" parent="dMZY4mZLo9hEpO47Zzg4-132">
          <mxGeometry y="30" width="147" height="30" as="geometry" />
        </mxCell>
        <mxCell id="dMZY4mZLo9hEpO47Zzg4-136" value="nombre" style="text;strokeColor=default;fillColor=none;align=left;verticalAlign=middle;spacingLeft=4;spacingRight=4;overflow=hidden;points=[[0,0.5],[1,0.5]];portConstraint=eastwest;rotatable=0;whiteSpace=wrap;html=1;strokeWidth=0;" vertex="1" parent="dMZY4mZLo9hEpO47Zzg4-132">
          <mxGeometry y="60" width="147" height="30" as="geometry" />
        </mxCell>
        <mxCell id="dMZY4mZLo9hEpO47Zzg4-137" value="" style="endArrow=none;html=1;rounded=0;edgeStyle=elbowEdgeStyle;strokeWidth=1;elbow=vertical;" edge="1" parent="1" source="dMZY4mZLo9hEpO47Zzg4-132" target="dMZY4mZLo9hEpO47Zzg4-126">
          <mxGeometry width="50" height="50" relative="1" as="geometry">
            <mxPoint x="1141" y="906" as="sourcePoint" />
            <mxPoint x="898" y="795" as="targetPoint" />
          </mxGeometry>
        </mxCell>
        <mxCell id="dMZY4mZLo9hEpO47Zzg4-139" value="" style="endArrow=none;html=1;rounded=0;edgeStyle=elbowEdgeStyle;strokeWidth=1;" edge="1" parent="1" source="dMZY4mZLo9hEpO47Zzg4-103" target="dMZY4mZLo9hEpO47Zzg4-114">
          <mxGeometry width="50" height="50" relative="1" as="geometry">
            <mxPoint x="334" y="852" as="sourcePoint" />
            <mxPoint x="326" y="703" as="targetPoint" />
          </mxGeometry>
        </mxCell>
        <mxCell id="dMZY4mZLo9hEpO47Zzg4-141" value="" style="endArrow=none;html=1;rounded=0;edgeStyle=elbowEdgeStyle;strokeWidth=1;" edge="1" parent="1" source="dMZY4mZLo9hEpO47Zzg4-132" target="dMZY4mZLo9hEpO47Zzg4-114">
          <mxGeometry width="50" height="50" relative="1" as="geometry">
            <mxPoint x="1134" y="1101.0000000000002" as="sourcePoint" />
            <mxPoint x="595" y="1229" as="targetPoint" />
          </mxGeometry>
        </mxCell>
        <mxCell id="dMZY4mZLo9hEpO47Zzg4-142" value="NECESIDAD_HABILIDAD" style="swimlane;fontStyle=0;childLayout=stackLayout;horizontal=1;startSize=30;horizontalStack=0;resizeParent=1;resizeParentMax=0;resizeLast=0;collapsible=1;marginBottom=0;whiteSpace=wrap;html=1;strokeWidth=3;" vertex="1" parent="1">
          <mxGeometry x="597.5" y="872" width="265" height="210" as="geometry" />
        </mxCell>
        <mxCell id="dMZY4mZLo9hEpO47Zzg4-143" value="&lt;u&gt;nec_ci&lt;/u&gt;" style="text;strokeColor=default;fillColor=none;align=left;verticalAlign=middle;spacingLeft=4;spacingRight=4;overflow=hidden;points=[[0,0.5],[1,0.5]];portConstraint=eastwest;rotatable=0;whiteSpace=wrap;html=1;strokeWidth=0;" vertex="1" parent="dMZY4mZLo9hEpO47Zzg4-142">
          <mxGeometry y="30" width="265" height="30" as="geometry" />
        </mxCell>
        <mxCell id="dMZY4mZLo9hEpO47Zzg4-144" value="&lt;u&gt;nec_id&lt;/u&gt;" style="text;strokeColor=default;fillColor=none;align=left;verticalAlign=middle;spacingLeft=4;spacingRight=4;overflow=hidden;points=[[0,0.5],[1,0.5]];portConstraint=eastwest;rotatable=0;whiteSpace=wrap;html=1;strokeWidth=0;" vertex="1" parent="dMZY4mZLo9hEpO47Zzg4-142">
          <mxGeometry y="60" width="265" height="30" as="geometry" />
        </mxCell>
        <mxCell id="dMZY4mZLo9hEpO47Zzg4-145" value="&lt;u&gt;sol_id&lt;/u&gt; → SOLIDARIO(id)" style="text;strokeColor=default;fillColor=none;align=left;verticalAlign=middle;spacingLeft=4;spacingRight=4;overflow=hidden;points=[[0,0.5],[1,0.5]];portConstraint=eastwest;rotatable=0;whiteSpace=wrap;html=1;strokeWidth=0;" vertex="1" parent="dMZY4mZLo9hEpO47Zzg4-142">
          <mxGeometry y="90" width="265" height="30" as="geometry" />
        </mxCell>
        <mxCell id="dMZY4mZLo9hEpO47Zzg4-148" value="estado" style="text;strokeColor=default;fillColor=none;align=left;verticalAlign=middle;spacingLeft=4;spacingRight=4;overflow=hidden;points=[[0,0.5],[1,0.5]];portConstraint=eastwest;rotatable=0;whiteSpace=wrap;html=1;strokeWidth=0;" vertex="1" parent="dMZY4mZLo9hEpO47Zzg4-142">
          <mxGeometry y="120" width="265" height="30" as="geometry" />
        </mxCell>
        <mxCell id="dMZY4mZLo9hEpO47Zzg4-146" value="fecha_creación" style="text;strokeColor=default;fillColor=none;align=left;verticalAlign=middle;spacingLeft=4;spacingRight=4;overflow=hidden;points=[[0,0.5],[1,0.5]];portConstraint=eastwest;rotatable=0;whiteSpace=wrap;html=1;strokeWidth=0;" vertex="1" parent="dMZY4mZLo9hEpO47Zzg4-142">
          <mxGeometry y="150" width="265" height="30" as="geometry" />
        </mxCell>
        <mxCell id="dMZY4mZLo9hEpO47Zzg4-147" value="FK (nec_ci, nec_id) → NECESIDAD(nec_ci, id)" style="text;strokeColor=default;fillColor=none;align=left;verticalAlign=middle;spacingLeft=4;spacingRight=4;overflow=hidden;points=[[0,0.5],[1,0.5]];portConstraint=eastwest;rotatable=0;whiteSpace=wrap;html=1;strokeWidth=0;" vertex="1" parent="dMZY4mZLo9hEpO47Zzg4-142">
          <mxGeometry y="180" width="265" height="30" as="geometry" />
        </mxCell>
        <mxCell id="dMZY4mZLo9hEpO47Zzg4-149" value="" style="endArrow=none;html=1;rounded=0;edgeStyle=elbowEdgeStyle;strokeWidth=1;elbow=vertical;" edge="1" parent="1" source="dMZY4mZLo9hEpO47Zzg4-142" target="dMZY4mZLo9hEpO47Zzg4-94">
          <mxGeometry width="50" height="50" relative="1" as="geometry">
            <mxPoint x="1138" y="976" as="sourcePoint" />
            <mxPoint x="1125" y="861" as="targetPoint" />
          </mxGeometry>
        </mxCell>
        <mxCell id="dMZY4mZLo9hEpO47Zzg4-150" value="" style="endArrow=none;html=1;rounded=0;edgeStyle=elbowEdgeStyle;strokeWidth=1;" edge="1" parent="1" source="dMZY4mZLo9hEpO47Zzg4-103" target="dMZY4mZLo9hEpO47Zzg4-142">
          <mxGeometry width="50" height="50" relative="1" as="geometry">
            <mxPoint x="419" y="987" as="sourcePoint" />
            <mxPoint x="595" y="1139" as="targetPoint" />
          </mxGeometry>
        </mxCell>
        <mxCell id="dMZY4mZLo9hEpO47Zzg4-151" value="USUARIO_DIRECCIÓN" style="swimlane;fontStyle=0;childLayout=stackLayout;horizontal=1;startSize=30;horizontalStack=0;resizeParent=1;resizeParentMax=0;resizeLast=0;collapsible=1;marginBottom=0;whiteSpace=wrap;html=1;strokeWidth=3;" vertex="1" parent="1">
          <mxGeometry x="174" y="199" width="168" height="120" as="geometry" />
        </mxCell>
        <mxCell id="dMZY4mZLo9hEpO47Zzg4-152" value="&lt;span&gt;&lt;u&gt;usuario_ci&lt;/u&gt; → USUARIO(ci)&lt;br&gt;&lt;/span&gt;" style="text;strokeColor=default;fillColor=none;align=left;verticalAlign=middle;spacingLeft=4;spacingRight=4;overflow=hidden;points=[[0,0.5],[1,0.5]];portConstraint=eastwest;rotatable=0;whiteSpace=wrap;html=1;fontStyle=0;strokeWidth=0;" vertex="1" parent="dMZY4mZLo9hEpO47Zzg4-151">
          <mxGeometry y="30" width="168" height="30" as="geometry" />
        </mxCell>
        <mxCell id="dMZY4mZLo9hEpO47Zzg4-153" value="id" style="text;strokeColor=default;fillColor=none;align=left;verticalAlign=middle;spacingLeft=4;spacingRight=4;overflow=hidden;points=[[0,0.5],[1,0.5]];portConstraint=eastwest;rotatable=0;whiteSpace=wrap;html=1;fontStyle=4;strokeWidth=0;" vertex="1" parent="dMZY4mZLo9hEpO47Zzg4-151">
          <mxGeometry y="60" width="168" height="30" as="geometry" />
        </mxCell>
        <mxCell id="dMZY4mZLo9hEpO47Zzg4-154" value="dirección" style="text;strokeColor=default;fillColor=none;align=left;verticalAlign=middle;spacingLeft=4;spacingRight=4;overflow=hidden;points=[[0,0.5],[1,0.5]];portConstraint=eastwest;rotatable=0;whiteSpace=wrap;html=1;strokeWidth=0;" vertex="1" parent="dMZY4mZLo9hEpO47Zzg4-151">
          <mxGeometry y="90" width="168" height="30" as="geometry" />
        </mxCell>
        <mxCell id="dMZY4mZLo9hEpO47Zzg4-155" value="USUARIO_TEL" style="swimlane;fontStyle=0;childLayout=stackLayout;horizontal=1;startSize=30;horizontalStack=0;resizeParent=1;resizeParentMax=0;resizeLast=0;collapsible=1;marginBottom=0;whiteSpace=wrap;html=1;strokeWidth=3;" vertex="1" parent="1">
          <mxGeometry x="433" y="199" width="168" height="120" as="geometry" />
        </mxCell>
        <mxCell id="dMZY4mZLo9hEpO47Zzg4-156" value="&lt;span&gt;&lt;u&gt;usuario_ci&lt;/u&gt; → USUARIO(ci)&lt;br&gt;&lt;/span&gt;" style="text;strokeColor=default;fillColor=none;align=left;verticalAlign=middle;spacingLeft=4;spacingRight=4;overflow=hidden;points=[[0,0.5],[1,0.5]];portConstraint=eastwest;rotatable=0;whiteSpace=wrap;html=1;fontStyle=0;strokeWidth=0;" vertex="1" parent="dMZY4mZLo9hEpO47Zzg4-155">
          <mxGeometry y="30" width="168" height="30" as="geometry" />
        </mxCell>
        <mxCell id="dMZY4mZLo9hEpO47Zzg4-157" value="id" style="text;strokeColor=default;fillColor=none;align=left;verticalAlign=middle;spacingLeft=4;spacingRight=4;overflow=hidden;points=[[0,0.5],[1,0.5]];portConstraint=eastwest;rotatable=0;whiteSpace=wrap;html=1;fontStyle=4;strokeWidth=0;" vertex="1" parent="dMZY4mZLo9hEpO47Zzg4-155">
          <mxGeometry y="60" width="168" height="30" as="geometry" />
        </mxCell>
        <mxCell id="dMZY4mZLo9hEpO47Zzg4-158" value="teléfono" style="text;strokeColor=default;fillColor=none;align=left;verticalAlign=middle;spacingLeft=4;spacingRight=4;overflow=hidden;points=[[0,0.5],[1,0.5]];portConstraint=eastwest;rotatable=0;whiteSpace=wrap;html=1;strokeWidth=0;" vertex="1" parent="dMZY4mZLo9hEpO47Zzg4-155">
          <mxGeometry y="90" width="168" height="30" as="geometry" />
        </mxCell>
        <mxCell id="dMZY4mZLo9hEpO47Zzg4-160" value="" style="endArrow=none;html=1;rounded=0;edgeStyle=elbowEdgeStyle;strokeWidth=1;elbow=vertical;" edge="1" parent="1" source="dMZY4mZLo9hEpO47Zzg4-44" target="dMZY4mZLo9hEpO47Zzg4-155">
          <mxGeometry width="50" height="50" relative="1" as="geometry">
            <mxPoint x="480" y="488" as="sourcePoint" />
            <mxPoint x="358" y="451" as="targetPoint" />
          </mxGeometry>
        </mxCell>
        <mxCell id="dMZY4mZLo9hEpO47Zzg4-161" value="" style="endArrow=none;html=1;rounded=0;edgeStyle=elbowEdgeStyle;strokeWidth=1;elbow=vertical;" edge="1" parent="1" source="dMZY4mZLo9hEpO47Zzg4-44" target="dMZY4mZLo9hEpO47Zzg4-151">
          <mxGeometry width="50" height="50" relative="1" as="geometry">
            <mxPoint x="527" y="368" as="sourcePoint" />
            <mxPoint x="516" y="329" as="targetPoint" />
          </mxGeometry>
        </mxCell>
        <mxCell id="dMZY4mZLo9hEpO47Zzg4-162" value="PERMISO" style="swimlane;fontStyle=0;childLayout=stackLayout;horizontal=1;startSize=30;horizontalStack=0;resizeParent=1;resizeParentMax=0;resizeLast=0;collapsible=1;marginBottom=0;whiteSpace=wrap;html=1;strokeWidth=3;" vertex="1" parent="1">
          <mxGeometry x="144" y="983" width="136" height="90" as="geometry" />
        </mxCell>
        <mxCell id="dMZY4mZLo9hEpO47Zzg4-164" value="&lt;u&gt;id&lt;/u&gt;" style="text;strokeColor=default;fillColor=none;align=left;verticalAlign=middle;spacingLeft=4;spacingRight=4;overflow=hidden;points=[[0,0.5],[1,0.5]];portConstraint=eastwest;rotatable=0;whiteSpace=wrap;html=1;strokeWidth=0;" vertex="1" parent="dMZY4mZLo9hEpO47Zzg4-162">
          <mxGeometry y="30" width="136" height="30" as="geometry" />
        </mxCell>
        <mxCell id="dMZY4mZLo9hEpO47Zzg4-165" value="nombre" style="text;strokeColor=default;fillColor=none;align=left;verticalAlign=middle;spacingLeft=4;spacingRight=4;overflow=hidden;points=[[0,0.5],[1,0.5]];portConstraint=eastwest;rotatable=0;whiteSpace=wrap;html=1;strokeWidth=0;" vertex="1" parent="dMZY4mZLo9hEpO47Zzg4-162">
          <mxGeometry y="60" width="136" height="30" as="geometry" />
        </mxCell>
        <mxCell id="dMZY4mZLo9hEpO47Zzg4-167" value="" style="endArrow=none;html=1;rounded=0;edgeStyle=elbowEdgeStyle;strokeWidth=1;elbow=vertical;" edge="1" parent="1" source="dMZY4mZLo9hEpO47Zzg4-162" target="dMZY4mZLo9hEpO47Zzg4-80">
          <mxGeometry width="50" height="50" relative="1" as="geometry">
            <mxPoint x="305" y="705" as="sourcePoint" />
            <mxPoint x="233" y="853" as="targetPoint" />
          </mxGeometry>
        </mxCell>
      </root>
    </mxGraphModel>
  </diagram>
</mxfile>
